<?xml version="1.0" encoding="UTF-8" standalone="no"?>
<svg width="410px" height="410px" viewBox="0 0 410 410" version="1.1" xmlns="http://www.w3.org/2000/svg" xmlns:xlink="http://www.w3.org/1999/xlink" xmlns:sketch="http://www.bohemiancoding.com/sketch/ns">
    <!-- Generator: Sketch 3.4.4 (17249) - http://www.bohemiancoding.com/sketch -->
    <title>FAK_BGU_neg_RGB</title>
    <desc>Created with Sketch.</desc>
    <defs></defs>
    <g id="TUM_Fakultätszeichen" stroke="none" stroke-width="1" fill="none" fill-rule="evenodd" sketch:type="MSPage">
        <g id="Negativ" sketch:type="MSLayerGroup" transform="translate(-6203.000000, -280.000000)" fill="#FFFFFF">
            <path d="M6407.98622,681.652612 C6317.9664,681.652612 6241.95579,620.824122 6218.68976,538.149168 C6258.48582,504.594322 6306.64333,482.36217 6408.01378,482.36217 C6509.21892,482.36217 6557.40398,504.566773 6597.31024,538.149168 C6574.05799,620.824122 6498.01982,681.652612 6407.98622,681.652612 L6407.98622,681.652612 Z M6213.8134,453.917689 L6602.1866,453.917689 C6603.7845,464.041996 6604.65233,474.428019 6604.65233,484.993113 C6604.65233,501.012935 6602.69628,516.536872 6599.07344,531.454729 C6558.56108,498.065177 6509.21892,476.122291 6408.01378,476.122291 C6306.64333,476.122291 6257.32872,498.092726 6216.92656,531.482278 C6213.3175,516.564421 6211.33389,501.012935 6211.33389,484.993113 C6211.33389,474.428019 6212.18795,464.041996 6213.8134,453.917689 L6213.8134,453.917689 Z M6602.00001,448 L6215,447.999995 C6232.49429,357.349567 6312.31864,288.333613 6407.98622,288.333613 C6503.68136,288.333613 6584.53327,358.363341 6602.00001,448 Z M6203,484.993113 C6203,598.027213 6294.94833,690 6407.98622,690 C6475.09919,690 6534.77979,657.587078 6572.2006,607.596823 C6597.81508,573.378577 6613,530.924683 6613,484.993113 C6613,371.959012 6521.0379,280 6407.98622,280 C6294.94833,280 6203,371.959012 6203,484.993113 Z" id="FAK_BGU_neg_RGB" sketch:type="MSShapeGroup"></path>
        </g>
    </g>
</svg>